<svg xmlns="http://www.w3.org/2000/svg" xmlns:xlink="http://www.w3.org/1999/xlink" width="1920" height="1764" viewBox="0 0 1920 1764">
  <defs>
    <radialGradient id="radial-gradient" cx="0.58" cy="0.505" r="0.5" gradientTransform="matrix(-0.161, 0.99, -0.849, -0.106, 0, 0)" gradientUnits="objectBoundingBox">
      <stop offset="0" stop-color="#0f4" stop-opacity="0.2"/>
      <stop offset="1" stop-color="#00ff80" stop-opacity="0"/>
    </radialGradient>
    <radialGradient id="radial-gradient-2" cx="0.58" cy="0.505" r="0.5" gradientTransform="matrix(-0.161, 0.99, -0.849, -0.106, 0, 0)" gradientUnits="objectBoundingBox">
      <stop offset="0" stop-color="#00ff4c" stop-opacity="0.2"/>
      <stop offset="1" stop-color="#0f7" stop-opacity="0"/>
    </radialGradient>
    <radialGradient id="radial-gradient-3" cx="0.58" cy="0.505" r="0.5" gradientTransform="matrix(-0.161, 0.99, -0.849, -0.106, 0, 0)" gradientUnits="objectBoundingBox">
      <stop offset="0" stop-color="#00ff5d" stop-opacity="0.2"/>
      <stop offset="1" stop-color="#00ff2b" stop-opacity="0"/>
    </radialGradient>
    <radialGradient id="radial-gradient-4" cx="0.58" cy="0.505" r="0.5" gradientTransform="matrix(-0.161, 0.99, -0.849, -0.106, 0, 0)" gradientUnits="objectBoundingBox">
      <stop offset="0" stop-color="#0f1" stop-opacity="0.2"/>
      <stop offset="1" stop-color="#00ff2b" stop-opacity="0"/>
    </radialGradient>
    <radialGradient id="radial-gradient-5" cx="0.58" cy="0.505" r="0.5" gradientTransform="matrix(-0.161, 0.99, -0.849, -0.106, 0, 0)" gradientUnits="objectBoundingBox">
      <stop offset="0" stop-color="#00ff19" stop-opacity="0.2"/>
      <stop offset="1" stop-color="#0f5" stop-opacity="0"/>
    </radialGradient>
    <radialGradient id="radial-gradient-6" cx="0.817" cy="0.453" r="0.532" gradientTransform="matrix(-0.597, -0.852, -0.731, 0.394, -0.068, 1.039)" gradientUnits="objectBoundingBox">
      <stop offset="0" stop-color="#00ff08" stop-opacity="0.2"/>
      <stop offset="1" stop-color="lime" stop-opacity="0"/>
    </radialGradient>
    <radialGradient id="radial-gradient-7" cx="0.58" cy="0.505" r="0.5" gradientTransform="matrix(-0.161, 0.99, -0.849, -0.106, 0, 0)" gradientUnits="objectBoundingBox">
      <stop offset="0" stop-color="#0f4" stop-opacity="0.2"/>
      <stop offset="1" stop-color="#00ff4c" stop-opacity="0"/>
    </radialGradient>
    <clipPath id="clip-path">
      <path id="Bounding_box" data-name="Bounding box" d="M0,0H65.715V65.715H0Z" fill="#a0e403" style="isolation: isolate"/>
    </clipPath>
    <clipPath id="clip-Page_1_1">
      <rect width="1920" height="1764"/>
    </clipPath>
  </defs>
  <g id="Page_1_1" data-name="Page 1 – 1" clip-path="url(#clip-Page_1_1)">
    <rect width="1920" height="1764" fill="#fff"/>
    <rect id="Trustport_-_Car_Dealer_Website_Template" data-name="Trustport - Car Dealer Website Template" width="1920" height="7051" style="isolation: isolate"/>
    <g id="bg" transform="translate(-611.223 -84.317)" style="isolation: isolate">
      <path id="Ellipse_6" data-name="Ellipse 6" d="M0,581.184C-1.1,259.237,222.075-.966,498.48,0s501.37,262.743,502.474,584.689S778.886,1166.844,502.48,1165.875,1.109,903.13,0,581.184Z" transform="translate(183.712 868.361) rotate(9.066)" fill="url(#radial-gradient)" style="isolation: isolate"/>
      <path id="Ellipse_9" data-name="Ellipse 9" d="M0,581.184C-1.1,259.237,222.075-.966,498.48,0s501.37,262.743,502.474,584.689S778.886,1166.844,502.48,1165.875,1.109,903.13,0,581.184Z" transform="translate(1844.678 2805.361) rotate(9.066)" fill="url(#radial-gradient-2)" style="isolation: isolate"/>
      <path id="Ellipse_15" data-name="Ellipse 15" d="M0,581.184C-1.1,259.237,222.075-.966,498.48,0s501.37,262.743,502.474,584.689S778.886,1166.844,502.48,1165.875,1.109,903.13,0,581.184Z" transform="translate(1169.678 3672.361) rotate(9.066)" fill="url(#radial-gradient-3)" style="isolation: isolate"/>
      <path id="Ellipse_16" data-name="Ellipse 16" d="M0,581.184C-1.1,259.237,222.075-.966,498.48,0s501.37,262.743,502.474,584.689S778.886,1166.844,502.48,1165.875,1.109,903.13,0,581.184Z" transform="translate(240.678 5350.361) rotate(9.066)" fill="url(#radial-gradient-4)" style="isolation: isolate"/>
      <path id="Ellipse_17" data-name="Ellipse 17" d="M0,581.184C-1.1,259.237,222.075-.966,498.48,0s501.37,262.743,502.474,584.689S778.886,1166.844,502.48,1165.875,1.109,903.13,0,581.184Z" transform="translate(1941.678 5813.361) rotate(9.066)" fill="url(#radial-gradient-5)" style="isolation: isolate"/>
      <path id="Ellipse_7" data-name="Ellipse 7" d="M.011,608.912C-1.836,943.578,230.03,1213.567,517.9,1211.947s522.729-274.234,524.576-608.9S812.452-1.612,524.585.007,1.858,274.245.011,608.912Z" transform="matrix(0.966, -0.259, 0.259, 0.966, 1435.221, 269.815)" fill="url(#radial-gradient-6)" style="isolation: isolate"/>
      <path id="Ellipse_6-2" data-name="Ellipse 6" d="M0,581.184C-1.1,259.237,222.075-.966,498.48,0s501.37,262.743,502.474,584.689S778.886,1166.844,502.48,1165.875,1.109,903.13,0,581.184Z" transform="translate(272.712 2033.361) rotate(9.066)" fill="url(#radial-gradient-7)" style="isolation: isolate"/>
    </g>
    <g id="header" transform="translate(200 90)" style="isolation: isolate">
      <g id="logo" style="isolation: isolate">
        <text id="LoremIpsum" transform="translate(80 15)" fill="#a0e403" font-size="24" font-family="Poppins-Black, Poppins" font-weight="800" style="isolation: isolate"><tspan x="0" y="25">LoremIpsum</tspan></text>
        <g id="masked_transitions" clip-path="url(#clip-path)" style="isolation: isolate">
          <path id="masked_transitions-2" data-name="masked_transitions" d="M5.613,49.15A18.468,18.468,0,0,1,0,35.6,18.468,18.468,0,0,1,5.613,22.042a18.468,18.468,0,0,1,13.554-5.613,18.468,18.468,0,0,1,13.554,5.613A18.468,18.468,0,0,1,38.334,35.6,18.468,18.468,0,0,1,32.721,49.15a18.468,18.468,0,0,1-13.554,5.613A18.468,18.468,0,0,1,5.613,49.15Zm23.24-3.868a13.2,13.2,0,0,0,4-9.686,13.2,13.2,0,0,0-4-9.686,13.2,13.2,0,0,0-9.686-4,13.2,13.2,0,0,0-9.686,4,13.2,13.2,0,0,0-4,9.686,13.2,13.2,0,0,0,4,9.686,13.2,13.2,0,0,0,9.686,4A13.2,13.2,0,0,0,28.853,45.282Zm12.219-8.659V35.6a21.116,21.116,0,0,0-6.4-15.5,21.116,21.116,0,0,0-15.5-6.4H18.14a2.8,2.8,0,0,0-.89.137A19.3,19.3,0,0,1,23.993,3.9,18.226,18.226,0,0,1,35.6,0,18.468,18.468,0,0,1,49.15,5.613a18.468,18.468,0,0,1,5.613,13.554,18.226,18.226,0,0,1-3.9,11.6,19.3,19.3,0,0,1-9.926,6.743A2.8,2.8,0,0,0,41.072,36.623Z" transform="translate(5.476 5.476)" fill="#a0e403" style="isolation: isolate"/>
        </g>
      </g>
      <g id="navigation" transform="translate(413 16.108)" style="isolation: isolate">
        <g id="Frame_2" data-name="Frame 2" style="isolation: isolate">
          <rect id="Frame_2-2" data-name="Frame 2" width="453" height="30" fill="none" style="isolation: isolate"/>
          <text id="Home" fill="#fff" font-size="20" font-family="Poppins-Regular, Poppins" style="isolation: isolate"><tspan x="0" y="21">Home</tspan></text>
          <text id="Service" transform="translate(123)" fill="#919191" font-size="20" font-family="Poppins-Regular, Poppins" style="isolation: isolate"><tspan x="0" y="21">Service</tspan></text>
          <text id="Over_Ons" data-name="Over Ons" transform="translate(258)" fill="#919191" font-size="20" font-family="Poppins-Regular, Poppins" style="isolation: isolate"><tspan x="0" y="21">Over Ons</tspan></text>
          <text id="Lorem_Ipsum" data-name="Lorem Ipsum" transform="translate(412)" fill="#919191" font-size="20" font-family="Poppins-Regular, Poppins" style="isolation: isolate"><tspan x="0" y="21">Lorem Ipsum</tspan></text>
          <text id="Lorem_Ipsum-2" data-name="Lorem Ipsum" transform="translate(600)" fill="#919191" font-size="20" font-family="Poppins-Regular, Poppins" style="isolation: isolate"><tspan x="0" y="21">Lorem Ipsum</tspan></text>
          <text id="Lorem_Ipsum-3" data-name="Lorem Ipsum" transform="translate(788)" fill="#919191" font-size="20" font-family="Poppins-Regular, Poppins" style="isolation: isolate"><tspan x="0" y="21">Lorem Ipsum</tspan></text>
          <text id="Lorem_Ipsum-4" data-name="Lorem Ipsum" transform="translate(976)" fill="#919191" font-size="20" font-family="Poppins-Regular, Poppins" style="isolation: isolate"><tspan x="0" y="21">Lorem Ipsum</tspan></text>
        </g>
        <line id="Line_1" data-name="Line 1" x2="33" transform="translate(1 33.5)" fill="none" stroke="#a0e403" stroke-width="2"/>
      </g>
    </g>
    <g id="Announcement_bar" data-name="Announcement bar">
      <path id="Path_234" data-name="Path 234" d="M0,0H1920V48H0Z" fill="#171c23"/>
      <g id="Group_265" data-name="Group 265" transform="translate(1588 12)">
        <rect id="Rectangle_6" data-name="Rectangle 6" width="24" height="24" fill="rgba(255,255,255,0)"/>
        <g id="logo-fb-simple" transform="translate(7 4)">
          <path id="Path_4" data-name="Path 4" d="M6.023,16,6,9H3V6H6V4c0-2.7,1.672-4,4.079-4a22.346,22.346,0,0,1,2.434.124V2.945h-1.67c-1.31,0-1.563.622-1.563,1.535V6H13L12,9H9.28v7Z" transform="translate(-3)" fill="#fff"/>
        </g>
        <rect id="Rectangle_10" data-name="Rectangle 10" width="24" height="24" transform="translate(36)" fill="rgba(255,255,255,0)"/>
        <g id="logo-pinterest" transform="translate(40 4)">
          <path id="Path_8" data-name="Path 8" d="M8,0A8.024,8.024,0,0,0,0,8a7.838,7.838,0,0,0,5.1,7.4,8.845,8.845,0,0,1,0-2.3c.1-.6.9-4,.9-4A2.653,2.653,0,0,1,5.8,8c0-1.1.7-2,1.5-2a.972.972,0,0,1,1,1.1,11.98,11.98,0,0,1-.7,2.7,1.125,1.125,0,0,0,1.2,1.4c1.4,0,2.5-1.5,2.5-3.7A3.206,3.206,0,0,0,8,4.2,3.44,3.44,0,0,0,4.4,7.7,3.216,3.216,0,0,0,5,9.5v.4a5.073,5.073,0,0,0-.2.9c0,.1-.1.2-.3.1A3.577,3.577,0,0,1,2.9,7.8C2.9,5.3,4.7,3,8.2,3a4.662,4.662,0,0,1,4.9,4.6c0,2.8-1.7,5-4.2,5a2,2,0,0,1-1.8-.9s-.4,1.5-.5,1.9a10.243,10.243,0,0,1-1,2.1A9.863,9.863,0,0,0,8,16,8,8,0,0,0,8,0Z" fill="#fff"/>
        </g>
        <rect id="Rectangle_12" data-name="Rectangle 12" width="24" height="24" transform="translate(72)" fill="rgba(255,255,255,0)"/>
        <g id="logo-twitter" transform="translate(76 6)">
          <path id="Path_5" data-name="Path 5" d="M16,3a5.918,5.918,0,0,1-1.9.5,2.827,2.827,0,0,0,1.4-1.8,6.561,6.561,0,0,1-2.1.8,3.492,3.492,0,0,0-2.4-1A3.311,3.311,0,0,0,7.8,4.8a1.483,1.483,0,0,0,.1.7A9.2,9.2,0,0,1,1.1,2.1,3.064,3.064,0,0,0,.7,3.8,3.282,3.282,0,0,0,2.2,6.5,4.191,4.191,0,0,1,.7,6.1h0A3.228,3.228,0,0,0,3.3,9.3a2.769,2.769,0,0,1-.9.1,1.268,1.268,0,0,1-.6-.1,3.24,3.24,0,0,0,3.1,2.3A6.359,6.359,0,0,1,.8,13H0a9.757,9.757,0,0,0,5,1.5,9.256,9.256,0,0,0,9.3-9.3V4.8A5.814,5.814,0,0,0,16,3Z" transform="translate(0 -1.5)" fill="#fff"/>
        </g>
        <rect id="Rectangle_11" data-name="Rectangle 11" width="24" height="24" transform="translate(108)" fill="rgba(255,255,255,0)"/>
        <g id="logo-instagram" transform="translate(112 4)">
          <circle id="Ellipse_1" data-name="Ellipse 1" cx="0.96" cy="0.96" r="0.96" transform="translate(11.185 2.932)" fill="#fff"/>
          <path id="Path_6" data-name="Path 6" d="M8,12a4,4,0,1,1,4-4A4,4,0,0,1,8,12ZM8,6a2,2,0,1,0,2,2A2,2,0,0,0,8,6Z" fill="#fff"/>
          <path id="Path_7" data-name="Path 7" d="M12,16H4a4.214,4.214,0,0,1-4-4V4A4.214,4.214,0,0,1,4,0h8a4.214,4.214,0,0,1,4,4v8A4.214,4.214,0,0,1,12,16ZM4,2A2.265,2.265,0,0,0,2,4v8a2.231,2.231,0,0,0,2,2h8a2.265,2.265,0,0,0,2-2V4a2.265,2.265,0,0,0-2-2Z" fill="#fff"/>
        </g>
      </g>
      <g id="Group_266" data-name="Group 266" transform="translate(200 12)">
        <rect id="Rectangle_6-2" data-name="Rectangle 6" width="24" height="24" fill="rgba(255,255,255,0)"/>
        <g id="pin-3" transform="translate(5 3)">
          <path id="Path_1" data-name="Path 1" d="M8,0A6.957,6.957,0,0,0,1,7a6.722,6.722,0,0,0,2.1,5c.1.1,4.1,3.7,4.2,3.8a1.049,1.049,0,0,0,1.3,0c.1-.1,4.2-3.7,4.2-3.8a6.722,6.722,0,0,0,2.1-5A6.812,6.812,0,0,0,8,0ZM8,9a2,2,0,1,1,2-2A2.006,2.006,0,0,1,8,9Z" transform="translate(-1)" fill="#fff"/>
        </g>
        <text id="Jan_Steenstraat_50_5953JC_Reuver" data-name="Jan Steenstraat 50, 5953JC Reuver" transform="translate(27 16)" fill="#fff" font-size="14" font-family="Roboto-Medium, Roboto" font-weight="500"><tspan x="0" y="0">Jan Steenstraat 50, 5953JC Reuver</tspan></text>
      </g>
      <g id="Group_267" data-name="Group 267" transform="translate(517 12)">
        <rect id="Rectangle_9" data-name="Rectangle 9" width="24" height="24" fill="rgba(255,255,255,0)"/>
        <g id="letter" transform="translate(4 5)">
          <path id="Path_2" data-name="Path 2" d="M14,1H2A2,2,0,0,0,0,3v.4L8,7.9l8-4.4V3A2,2,0,0,0,14,1Z" transform="translate(0 -1)" fill="#fff"/>
          <path id="Path_3" data-name="Path 3" d="M7.5,9.9,0,5.7V13a2,2,0,0,0,2,2H14a2,2,0,0,0,2-2V5.7L8.5,9.9A1.243,1.243,0,0,1,7.5,9.9Z" transform="translate(0 -1)" fill="#fff"/>
        </g>
        <text id="info_loremipsum.nl" data-name="info@loremipsum.nl" transform="translate(27 16)" fill="#fff" font-size="14" font-family="Roboto-Medium, Roboto" font-weight="500"><tspan x="0" y="0">info@loremipsum.nl</tspan></text>
      </g>
    </g>
    <g id="footer" transform="translate(0 1125.285)" style="isolation: isolate">
      <g id="top" transform="translate(199.858 230)" style="isolation: isolate">
        <text id="orem_ipsum_dolor_sit_amet_consectetur_adipiscing_elit._Proin_facilisis_libero_nibh_eu_auctor_justo_finibus_sit_amet._" data-name="orem ipsum dolor sit amet, consectetur adipiscing elit. Proin facilisis libero nibh, eu auctor justo finibus sit amet. " transform="translate(1196.285 79.215)" fill="#919191" font-size="18" font-family="Poppins-Regular, Poppins" style="isolation: isolate"><tspan x="0" y="19">orem ipsum dolor sit amet, </tspan><tspan x="0" y="46">consectetur adipiscing elit. Proin </tspan><tspan x="0" y="73">facilisis libero nibh, eu auctor justo </tspan><tspan x="0" y="100">finibus sit amet. </tspan></text>
        <g id="Group_269" data-name="Group 269" transform="translate(0 11.215)">
          <text id="Lorem_Ipsum-5" data-name="Lorem Ipsum" fill="#fff" font-size="18" font-family="Poppins-Regular, Poppins" style="isolation: isolate"><tspan x="0" y="19">Lorem Ipsum</tspan></text>
          <text id="Link" transform="translate(0 43)" fill="rgba(255,255,255,0.8)" font-size="18" font-family="Poppins-Regular, Poppins" style="isolation: isolate"><tspan x="0" y="19">Link</tspan></text>
          <text id="Link-2" data-name="Link" transform="translate(0 85)" fill="rgba(255,255,255,0.8)" font-size="18" font-family="Poppins-Regular, Poppins" style="isolation: isolate"><tspan x="0" y="19">Link</tspan></text>
          <text id="Link-3" data-name="Link" transform="translate(0 127)" fill="rgba(255,255,255,0.8)" font-size="18" font-family="Poppins-Regular, Poppins" style="isolation: isolate"><tspan x="0" y="19">Link</tspan></text>
          <text id="Link-4" data-name="Link" transform="translate(0 169)" fill="rgba(255,255,255,0.8)" font-size="18" font-family="Poppins-Regular, Poppins" style="isolation: isolate"><tspan x="0" y="19">Link</tspan></text>
        </g>
        <g id="logo-2" data-name="logo" transform="translate(1196.285)" style="isolation: isolate">
          <text id="LoremIpsum-2" data-name="LoremIpsum" transform="translate(80 15)" fill="#a0e403" font-size="24" font-family="Poppins-Black, Poppins" font-weight="800" style="isolation: isolate"><tspan x="0" y="25">LoremIpsum</tspan></text>
          <g id="masked_transitions-3" data-name="masked_transitions" clip-path="url(#clip-path)" style="isolation: isolate">
            <path id="masked_transitions-4" data-name="masked_transitions" d="M5.613,49.15A18.468,18.468,0,0,1,0,35.6,18.468,18.468,0,0,1,5.613,22.042a18.468,18.468,0,0,1,13.554-5.613,18.468,18.468,0,0,1,13.554,5.613A18.468,18.468,0,0,1,38.334,35.6,18.468,18.468,0,0,1,32.721,49.15a18.468,18.468,0,0,1-13.554,5.613A18.468,18.468,0,0,1,5.613,49.15Zm23.24-3.868a13.2,13.2,0,0,0,4-9.686,13.2,13.2,0,0,0-4-9.686,13.2,13.2,0,0,0-9.686-4,13.2,13.2,0,0,0-9.686,4,13.2,13.2,0,0,0-4,9.686,13.2,13.2,0,0,0,4,9.686,13.2,13.2,0,0,0,9.686,4A13.2,13.2,0,0,0,28.853,45.282Zm12.219-8.659V35.6a21.116,21.116,0,0,0-6.4-15.5,21.116,21.116,0,0,0-15.5-6.4H18.14a2.8,2.8,0,0,0-.89.137A19.3,19.3,0,0,1,23.993,3.9,18.226,18.226,0,0,1,35.6,0,18.468,18.468,0,0,1,49.15,5.613a18.468,18.468,0,0,1,5.613,13.554,18.226,18.226,0,0,1-3.9,11.6,19.3,19.3,0,0,1-9.926,6.743A2.8,2.8,0,0,0,41.072,36.623Z" transform="translate(5.476 5.476)" fill="#a0e403" style="isolation: isolate"/>
          </g>
        </g>
        <g id="Group_270" data-name="Group 270" transform="translate(190 11.215)">
          <text id="Lorem_Ipsum-6" data-name="Lorem Ipsum" fill="#fff" font-size="18" font-family="Poppins-Regular, Poppins" style="isolation: isolate"><tspan x="0" y="19">Lorem Ipsum</tspan></text>
          <text id="Link-5" data-name="Link" transform="translate(0 43)" fill="rgba(255,255,255,0.8)" font-size="18" font-family="Poppins-Regular, Poppins" style="isolation: isolate"><tspan x="0" y="19">Link</tspan></text>
          <text id="Link-6" data-name="Link" transform="translate(0 85)" fill="rgba(255,255,255,0.8)" font-size="18" font-family="Poppins-Regular, Poppins" style="isolation: isolate"><tspan x="0" y="19">Link</tspan></text>
          <text id="Link-7" data-name="Link" transform="translate(0 127)" fill="rgba(255,255,255,0.8)" font-size="18" font-family="Poppins-Regular, Poppins" style="isolation: isolate"><tspan x="0" y="19">Link</tspan></text>
          <text id="Link-8" data-name="Link" transform="translate(0 169)" fill="rgba(255,255,255,0.8)" font-size="18" font-family="Poppins-Regular, Poppins" style="isolation: isolate"><tspan x="0" y="19">Link</tspan></text>
        </g>
        <g id="Group_271" data-name="Group 271" transform="translate(380 11.215)">
          <text id="Lorem_Ipsum-7" data-name="Lorem Ipsum" fill="#fff" font-size="18" font-family="Poppins-Regular, Poppins" style="isolation: isolate"><tspan x="0" y="19">Lorem Ipsum</tspan></text>
          <text id="Link-9" data-name="Link" transform="translate(0 43)" fill="rgba(255,255,255,0.8)" font-size="18" font-family="Poppins-Regular, Poppins" style="isolation: isolate"><tspan x="0" y="19">Link</tspan></text>
          <text id="Link-10" data-name="Link" transform="translate(0 85)" fill="rgba(255,255,255,0.8)" font-size="18" font-family="Poppins-Regular, Poppins" style="isolation: isolate"><tspan x="0" y="19">Link</tspan></text>
          <text id="Link-11" data-name="Link" transform="translate(0 127)" fill="rgba(255,255,255,0.8)" font-size="18" font-family="Poppins-Regular, Poppins" style="isolation: isolate"><tspan x="0" y="19">Link</tspan></text>
          <text id="Link-12" data-name="Link" transform="translate(0 169)" fill="rgba(255,255,255,0.8)" font-size="18" font-family="Poppins-Regular, Poppins" style="isolation: isolate"><tspan x="0" y="19">Link</tspan></text>
        </g>
        <g id="Group_272" data-name="Group 272" transform="translate(570 11.215)">
          <text id="Lorem_Ipsum-8" data-name="Lorem Ipsum" fill="#fff" font-size="18" font-family="Poppins-Regular, Poppins" style="isolation: isolate"><tspan x="0" y="19">Lorem Ipsum</tspan></text>
          <text id="Link-13" data-name="Link" transform="translate(0 43)" fill="rgba(255,255,255,0.8)" font-size="18" font-family="Poppins-Regular, Poppins" style="isolation: isolate"><tspan x="0" y="19">Link</tspan></text>
          <text id="Link-14" data-name="Link" transform="translate(0 85)" fill="rgba(255,255,255,0.8)" font-size="18" font-family="Poppins-Regular, Poppins" style="isolation: isolate"><tspan x="0" y="19">Link</tspan></text>
          <text id="Link-15" data-name="Link" transform="translate(0 127)" fill="rgba(255,255,255,0.8)" font-size="18" font-family="Poppins-Regular, Poppins" style="isolation: isolate"><tspan x="0" y="19">Link</tspan></text>
          <text id="Link-16" data-name="Link" transform="translate(0 169)" fill="rgba(255,255,255,0.8)" font-size="18" font-family="Poppins-Regular, Poppins" style="isolation: isolate"><tspan x="0" y="19">Link</tspan></text>
        </g>
      </g>
      <g id="lowe" transform="translate(0 547.215)" style="isolation: isolate">
        <path id="Rectangle_60" data-name="Rectangle 60" d="M0,0H1920V93H0Z" fill="#a0e403" style="isolation: isolate"/>
        <text id="_Copyright_2025_Alle_Rechten_Voorbehouden_-_LoremIpsum" data-name="© Copyright 2025, Alle Rechten Voorbehouden - LoremIpsum" transform="translate(200 37)" fill="#002300" font-size="18" font-family="Poppins-Regular, Poppins" letter-spacing="0.001em" style="isolation: isolate"><tspan x="0" y="19">© Copyright 2025, Alle Rechten Voorbehouden - LoremIpsum</tspan></text>
        <g id="Group_268" data-name="Group 268" transform="translate(1588 35)">
          <rect id="Rectangle_6-3" data-name="Rectangle 6" width="24" height="24" fill="rgba(255,255,255,0)"/>
          <g id="logo-fb-simple-2" data-name="logo-fb-simple" transform="translate(7 4)">
            <path id="Path_4-2" data-name="Path 4" d="M6.023,16,6,9H3V6H6V4c0-2.7,1.672-4,4.079-4a22.346,22.346,0,0,1,2.434.124V2.945h-1.67c-1.31,0-1.563.622-1.563,1.535V6H13L12,9H9.28v7Z" transform="translate(-3)"/>
          </g>
          <rect id="Rectangle_10-2" data-name="Rectangle 10" width="24" height="24" transform="translate(36)" fill="rgba(255,255,255,0)"/>
          <g id="logo-pinterest-2" data-name="logo-pinterest" transform="translate(40 4)">
            <path id="Path_8-2" data-name="Path 8" d="M8,0A8.024,8.024,0,0,0,0,8a7.838,7.838,0,0,0,5.1,7.4,8.845,8.845,0,0,1,0-2.3c.1-.6.9-4,.9-4A2.653,2.653,0,0,1,5.8,8c0-1.1.7-2,1.5-2a.972.972,0,0,1,1,1.1,11.98,11.98,0,0,1-.7,2.7,1.125,1.125,0,0,0,1.2,1.4c1.4,0,2.5-1.5,2.5-3.7A3.206,3.206,0,0,0,8,4.2,3.44,3.44,0,0,0,4.4,7.7,3.216,3.216,0,0,0,5,9.5v.4a5.073,5.073,0,0,0-.2.9c0,.1-.1.2-.3.1A3.577,3.577,0,0,1,2.9,7.8C2.9,5.3,4.7,3,8.2,3a4.662,4.662,0,0,1,4.9,4.6c0,2.8-1.7,5-4.2,5a2,2,0,0,1-1.8-.9s-.4,1.5-.5,1.9a10.243,10.243,0,0,1-1,2.1A9.863,9.863,0,0,0,8,16,8,8,0,0,0,8,0Z"/>
          </g>
          <rect id="Rectangle_12-2" data-name="Rectangle 12" width="24" height="24" transform="translate(72)" fill="rgba(255,255,255,0)"/>
          <g id="logo-twitter-2" data-name="logo-twitter" transform="translate(76 6)">
            <path id="Path_5-2" data-name="Path 5" d="M16,3a5.918,5.918,0,0,1-1.9.5,2.827,2.827,0,0,0,1.4-1.8,6.561,6.561,0,0,1-2.1.8,3.492,3.492,0,0,0-2.4-1A3.311,3.311,0,0,0,7.8,4.8a1.483,1.483,0,0,0,.1.7A9.2,9.2,0,0,1,1.1,2.1,3.064,3.064,0,0,0,.7,3.8,3.282,3.282,0,0,0,2.2,6.5,4.191,4.191,0,0,1,.7,6.1h0A3.228,3.228,0,0,0,3.3,9.3a2.769,2.769,0,0,1-.9.1,1.268,1.268,0,0,1-.6-.1,3.24,3.24,0,0,0,3.1,2.3A6.359,6.359,0,0,1,.8,13H0a9.757,9.757,0,0,0,5,1.5,9.256,9.256,0,0,0,9.3-9.3V4.8A5.814,5.814,0,0,0,16,3Z" transform="translate(0 -1.5)"/>
          </g>
          <rect id="Rectangle_11-2" data-name="Rectangle 11" width="24" height="24" transform="translate(108)" fill="rgba(255,255,255,0)"/>
          <g id="logo-instagram-2" data-name="logo-instagram" transform="translate(112 4)">
            <circle id="Ellipse_1-2" data-name="Ellipse 1" cx="0.96" cy="0.96" r="0.96" transform="translate(11.185 2.932)"/>
            <path id="Path_6-2" data-name="Path 6" d="M8,12a4,4,0,1,1,4-4A4,4,0,0,1,8,12ZM8,6a2,2,0,1,0,2,2A2,2,0,0,0,8,6Z"/>
            <path id="Path_7-2" data-name="Path 7" d="M12,16H4a4.214,4.214,0,0,1-4-4V4A4.214,4.214,0,0,1,4,0h8a4.214,4.214,0,0,1,4,4v8A4.214,4.214,0,0,1,12,16ZM4,2A2.265,2.265,0,0,0,2,4v8a2.231,2.231,0,0,0,2,2h8a2.265,2.265,0,0,0,2-2V4a2.265,2.265,0,0,0-2-2Z"/>
          </g>
        </g>
      </g>
    </g>
    <g id="Countdown" transform="translate(200 783)">
      <path id="Path_235" data-name="Path 235" d="M12,0H1508a12,12,0,0,1,12,12V186a12,12,0,0,1-12,12H12A12,12,0,0,1,0,186V12A12,12,0,0,1,12,0Z" fill="#0c0c0c"/>
      <g id="Group_14" data-name="Group 14" transform="translate(1057 55)">
        <g id="Group_10" data-name="Group 10">
          <text id="_11" data-name="11" transform="translate(26 58)" fill="#fff" font-size="60" font-family="Inter-Bold, Inter" font-weight="700"><tspan x="-25.869" y="0">11</tspan></text>
          <text id="Days" transform="translate(26 86)" fill="#fff" font-size="14" font-family="Inter-Regular, Inter"><tspan x="-16.509" y="0">Days</tspan></text>
        </g>
        <g id="Group_11" data-name="Group 11" transform="translate(104)">
          <text id="_02" data-name="02" transform="translate(39 58)" fill="#fff" font-size="60" font-family="Inter-Bold, Inter" font-weight="700"><tspan x="-39.126" y="0">02</tspan></text>
          <text id="Hours" transform="translate(39 86)" fill="#fff" font-size="14" font-family="Inter-Regular, Inter"><tspan x="-19.869" y="0">Hours</tspan></text>
        </g>
        <g id="Group_12" data-name="Group 12" transform="translate(232)">
          <text id="_45" data-name="45" transform="translate(39 58)" fill="#fff" font-size="60" font-family="Inter-Bold, Inter" font-weight="700"><tspan x="-38.95" y="0">45</tspan></text>
          <text id="Minutes" transform="translate(39 86)" fill="#fff" font-size="14" font-family="Inter-Regular, Inter"><tspan x="-26.291" y="0">Minutes</tspan></text>
        </g>
        <g id="Group_13" data-name="Group 13" transform="translate(361)">
          <text id="_21" data-name="21" transform="translate(32 58)" fill="#fff" font-size="60" font-family="Inter-Bold, Inter" font-weight="700"><tspan x="-31.831" y="0">21</tspan></text>
          <text id="Seconds" transform="translate(32 86)" fill="#fff" font-size="14" font-family="Inter-Regular, Inter"><tspan x="-28.885" y="0">Seconds</tspan></text>
        </g>
        <text id=":" transform="translate(79 44)" fill="#fff" font-size="30" font-family="Inter-Regular, Inter"><tspan x="-4.321" y="0">:</tspan></text>
        <text id=":-2" data-name=":" transform="translate(207 44)" fill="#fff" font-size="30" font-family="Inter-Regular, Inter"><tspan x="-4.321" y="0">:</tspan></text>
        <text id=":-3" data-name=":" transform="translate(334 44)" fill="#fff" font-size="30" font-family="Inter-Regular, Inter"><tspan x="-4.321" y="0">:</tspan></text>
      </g>
      <text id="And_then_there_was_P" data-name="And then there was P" transform="translate(72 40)" fill="#a0e403" font-size="45" font-family="Poppins-SemiBold, Poppins" font-weight="600" letter-spacing="-0.047em"><tspan x="0" y="47">Lorem ipsum dolor sit </tspan><tspan x="0" y="101">amet, consectetur</tspan></text>
    </g>
    <g id="Hero_Text" data-name="Hero Text" transform="translate(200 292)">
      <g id="Butto" transform="translate(152 261)">
        <rect id="Elements_Buttons_Secondary_Big_Simple_background" data-name="Elements / Buttons / Secondary / Big / Simple background" width="224" height="50" fill="none"/>
        <g id="Button" transform="translate(0)">
          <rect id="Base" width="224" height="50" rx="5" transform="translate(0)" fill="#fff" opacity="0.15"/>
          <text id="Button_Text" data-name="Button Text" transform="translate(112 31)" fill="#fff" font-size="16" font-family="Heebo-Medium, Heebo" font-weight="500" letter-spacing="-0.022em"><tspan x="-59.083" y="0">Nu vanaf €1/dag!</tspan></text>
        </g>
      </g>
      <g id="Button-2" data-name="Button" transform="translate(0 261)">
        <rect id="Base-2" data-name="Base" width="137" height="50" rx="5" fill="#a0e403"/>
        <g id="Group" transform="translate(15.195 13.19)">
          <text id="With_Icon" data-name="With Icon" transform="translate(39 17)" fill="#fff" font-size="16" font-family="Heebo-Medium, Heebo" font-weight="500" letter-spacing="-0.022em"><tspan x="-38.955" y="0">Auto Huren</tspan></text>
          <path id="Color" d="M17.5,19.012H4.5a1.992,1.992,0,0,1-1.92-1.46L.04,8.283A.851.851,0,0,1,0,8.013a1,1,0,0,1,1-1H5.77L10.16.443A.986.986,0,0,1,10.986,0a1.006,1.006,0,0,1,.834.443l4.39,6.57H21a1,1,0,0,1,1,1l-.03.27-2.54,9.27A2.019,2.019,0,0,1,17.5,19.012Zm-6.5-8a2,2,0,1,0,2,2A2,2,0,0,0,11,11.012ZM10.99,2.8h0L8.18,7.013H13.8L10.99,2.8Z" transform="translate(84 2)" fill="#fff"/>
        </g>
      </g>
      <text id="And_then_there_was_P-2" data-name="And then there was P" fill="#a0e403" font-size="54" font-family="Poppins-SemiBold, Poppins" font-weight="600" letter-spacing="-0.047em"><tspan x="0" y="57">De Beste Car Dealer</tspan><tspan x="0" y="129">van Nederland</tspan></text>
      <text id="A_transformative_tri" data-name="A transformative tri" transform="translate(0 165)" fill="#fff" font-size="16" font-family="Heebo-Regular, Heebo" letter-spacing="-0.018em" opacity="0.92"><tspan x="0" y="17">orem ipsum dolor sit amet, consectetur adipiscing elit. Proin facilisis </tspan><tspan x="0" y="49">libero nibh, eu auctor justo finibus sit amet. </tspan></text>
    </g>
  </g>
</svg>
